<svg width="130" height="47" viewBox="0 0 130 47" fill="none" xmlns="http://www.w3.org/2000/svg">
<path d="M4.95672 6.10352e-05H0V35.7987H4.95672V22.5177C4.95672 20.271 5.51557 18.4985 6.63326 17.2503C7.75095 16.0021 9.2817 15.353 11.1769 15.353C12.8049 15.353 14.1655 15.9522 15.2589 17.1005C16.3523 18.2738 16.9112 19.7467 16.9112 21.5192V35.8236H21.8922V21.5192C21.8922 18.2239 20.9932 15.6276 19.1951 13.6804C17.3971 11.7332 15.0402 10.7596 12.1731 10.7596C11.347 10.7596 10.5209 10.8595 9.71906 11.0841C8.89294 11.3088 8.2369 11.5585 7.70235 11.8331C7.16781 12.1077 6.65756 12.4072 6.1959 12.7567C5.73424 13.1062 5.41838 13.3559 5.27259 13.5057C5.1268 13.6555 5.00532 13.7553 4.95672 13.8302V6.10352e-05Z" fill="#F0145A"/>
<path d="M32.9727 0H27.8628V35.7689H32.9727V0Z" fill="#323264"/>
<path d="M63.1116 25.2931L63.3671 22.7382C63.3671 19.3146 62.2429 16.4531 59.9435 14.1537C57.6441 11.8543 54.7825 10.7301 51.359 10.7301C47.9354 10.7301 44.9717 11.9565 42.5189 14.4092C40.0662 16.8619 38.8398 19.7745 38.8398 23.2492C38.8398 26.8261 40.1173 29.892 42.6211 32.4469C45.1249 35.0018 48.1398 36.2793 51.6144 36.2793C52.943 36.2793 54.1694 36.0749 55.3957 35.7172C56.6221 35.3084 57.6441 34.8996 58.3594 34.4909C59.1259 34.031 59.8924 33.52 60.5567 32.9579C61.2209 32.3958 61.6808 31.987 61.8852 31.7315C62.0896 31.4761 62.2429 31.3228 62.3451 31.1695L59.0237 27.8481L58.2572 28.8189C57.7463 29.4321 56.8776 30.0453 55.6512 30.7096C54.3738 31.3739 53.0452 31.6804 51.6144 31.6804C49.6216 31.6804 47.9354 31.0673 46.5046 29.7898C45.0738 28.5123 44.2052 27.0305 43.9497 25.2931H63.1116ZM51.359 15.0735C53.2496 15.0735 54.7825 15.6355 56.06 16.7086C57.2864 17.8328 58.0528 19.2124 58.3594 20.9498H44.1541C44.614 19.2124 45.4315 17.8328 46.709 16.7086C47.9354 15.6355 49.5194 15.0735 51.359 15.0735Z" fill="#323264"/>
<path d="M86.943 34.2865C86.943 36.5348 86.2787 38.3743 84.8991 39.8051C83.5705 41.1847 81.8843 41.9001 79.7892 41.9001C78.8695 41.9001 77.9497 41.7468 77.081 41.4913C76.2124 41.2358 75.5481 40.9292 74.986 40.5715C74.4239 40.2139 73.9129 39.8562 73.4019 39.3963C72.9421 38.9364 72.6355 38.6298 72.4822 38.4765C72.3289 38.3232 72.2267 38.1699 72.1245 38.0677L68.8031 41.3891L69.2119 41.9001C69.4674 42.2578 69.9273 42.7177 70.5404 43.2287C71.1536 43.6885 71.869 44.1995 72.6866 44.7105C73.5041 45.1704 74.5261 45.5792 75.8036 45.9369C77.081 46.2946 78.4096 46.499 79.7892 46.499C83.2639 46.499 86.1254 45.3237 88.5271 42.9732C90.8776 40.5716 92.0528 37.71 92.0528 34.2354V11.2411H86.943V13.796L86.0743 13.0295C85.5123 12.5185 84.6436 12.0076 83.4172 11.4966C82.1909 10.9856 80.8623 10.7301 79.5338 10.7301C76.4168 10.7301 73.7596 11.9054 71.4602 14.307C69.1608 16.7086 68.0366 19.5701 68.0366 22.9937C68.0366 26.4173 69.1608 29.2788 71.4602 31.6804C73.7596 34.0821 76.4168 35.2573 79.5338 35.2573C80.4024 35.2573 81.22 35.1551 82.0887 34.9507C82.9062 34.6952 83.5705 34.4397 84.1326 34.1843C84.6947 33.9288 85.2057 33.6222 85.6656 33.2645C86.1254 32.9068 86.4831 32.6513 86.5853 32.5491L86.943 32.1914V34.2865ZM73.1465 22.9937C73.1465 20.8476 73.8107 19.0591 75.1904 17.5773C76.57 16.0954 78.2052 15.329 80.0447 15.329C81.8843 15.329 83.5194 16.0954 84.8991 17.5773C86.2276 19.0591 86.943 20.8476 86.943 22.9937C86.943 25.1398 86.2276 26.9283 84.8991 28.4101C83.5194 29.892 81.8843 30.6585 80.0447 30.6585C78.2052 30.6585 76.57 29.892 75.1904 28.4101C73.8107 26.9283 73.1465 25.1398 73.1465 22.9937Z" fill="#323264"/>
<path d="M118.724 35.7683V19.9278C118.724 17.3218 117.753 15.1246 115.862 13.3872C113.972 11.5988 111.519 10.7301 108.504 10.7301C107.329 10.7301 106.154 10.8834 105.03 11.19C103.905 11.5477 102.986 11.9054 102.321 12.3142C101.657 12.7229 100.993 13.1828 100.38 13.7449C99.7664 14.2559 99.4087 14.6136 99.2043 14.818C99.051 15.0224 98.8977 15.1757 98.7955 15.329L102.117 18.6504L102.781 17.7817C103.19 17.2196 103.905 16.7086 104.978 16.1465C106.051 15.5845 107.227 15.329 108.504 15.329C109.986 15.329 111.212 15.7888 112.183 16.6575C113.154 17.5262 113.614 18.6504 113.614 19.9278L104.672 21.4608C102.475 21.8185 100.686 22.6871 99.4598 24.0668C98.1823 25.4464 97.5181 27.1327 97.5181 29.1255C97.5181 31.0162 98.3356 32.6513 99.9708 34.0821C101.657 35.5639 103.701 36.2793 106.205 36.2793C107.073 36.2793 107.891 36.1771 108.709 35.9216C109.577 35.7172 110.242 35.4617 110.804 35.2062C111.366 34.9507 111.877 34.6442 112.337 34.2865C112.796 33.9288 113.103 33.6733 113.307 33.5711C113.461 33.4178 113.563 33.2645 113.614 33.2134V35.7683H118.724ZM106.971 31.6804C105.643 31.6804 104.57 31.3739 103.803 30.7607C102.986 30.1475 102.628 29.4321 102.628 28.6145C102.628 27.7459 102.883 26.9794 103.445 26.4173C104.008 25.8552 104.774 25.4464 105.694 25.2931L113.614 24.0157V24.5267C113.614 26.8261 113.052 28.5634 111.877 29.8409C110.701 31.0673 109.066 31.6804 106.971 31.6804Z" fill="#323264"/>
<path d="M130 0H124.89V35.7689H130V0Z" fill="#323264"/>
</svg>
